<?xml version="1.0" encoding="UTF-8" standalone="no"?>
<!-- Created with Inkscape (http://www.inkscape.org/) -->

<svg
   width="512"
   height="512"
   viewBox="0 0 512 512"
   version="1.1"
   id="svg1"
   sodipodi:docname="axuata.svg"
   inkscape:version="1.3.2 (091e20e, 2023-11-25, custom)"
   inkscape:export-filename="axuata.png"
   inkscape:export-xdpi="96"
   inkscape:export-ydpi="96"
   xmlns:inkscape="http://www.inkscape.org/namespaces/inkscape"
   xmlns:sodipodi="http://sodipodi.sourceforge.net/DTD/sodipodi-0.dtd"
   xmlns="http://www.w3.org/2000/svg"
   xmlns:svg="http://www.w3.org/2000/svg">
  <sodipodi:namedview
     id="namedview1"
     pagecolor="#ffffff"
     bordercolor="#000000"
     borderopacity="0.25"
     inkscape:showpageshadow="2"
     inkscape:pageopacity="0.0"
     inkscape:pagecheckerboard="0"
     inkscape:deskcolor="#d1d1d1"
     inkscape:document-units="mm"
     inkscape:zoom="1"
     inkscape:cx="127.5"
     inkscape:cy="301.5"
     inkscape:window-width="1920"
     inkscape:window-height="1009"
     inkscape:window-x="-8"
     inkscape:window-y="-8"
     inkscape:window-maximized="1"
     inkscape:current-layer="layer1" />
  <defs
     id="defs1" />
  <g
     inkscape:label="Layer 1"
     inkscape:groupmode="layer"
     id="layer1"
     transform="translate(-29.998906,-26.681957)">
    <path
       id="path7"
       style="fill:#49bcff;fill-opacity:1;stroke-width:0;paint-order:stroke fill markers"
       d="M 404.27075,369.75411 A 141.81818,142.22223 0 0 0 285.99891,305.98096 141.81818,142.22223 0 0 0 167.81478,369.80735 l 118.18413,72.72917 z" />
    <path
       id="path27"
       style="fill:#2da1ff;fill-opacity:1;stroke-width:0;paint-order:stroke fill markers"
       d="m 285.99891,214.98096 a 153.63637,154.07408 0 0 0 -130,72.15741 v 75.39815 l 11.81587,7.27083 a 141.81819,142.22223 0 0 1 118.18413,-63.82639 141.81819,142.22223 0 0 1 118.27185,63.77315 l 11.72815,-7.21759 v -75.50695 a 153.63637,154.07408 0 0 0 -130,-72.04861 z" />
    <path
       id="path26"
       style="fill:#178bff;fill-opacity:1;stroke-width:0;paint-order:stroke fill markers"
       d="m 285.99891,123.1365 -130,80 v 84.60186 a 153.63637,154.07408 0 0 1 130,-72.15741 153.63637,154.07408 0 0 1 129.99999,72.04861 V 203.1365 Z" />
  </g>
</svg>
